<svg width="32" height="32" viewBox="0 0 32 32" fill="none" xmlns="http://www.w3.org/2000/svg">
<path d="M24.3997 7.61328C24.1506 7.3636 23.8124 7.22329 23.4597 7.22329C23.107 7.22329 22.7688 7.3636 22.5197 7.61328L15.9997 14.1199L9.47972 7.59994C9.23061 7.35027 8.89241 7.20996 8.53972 7.20996C8.18703 7.20996 7.84883 7.35027 7.59972 7.59994C7.07972 8.11994 7.07972 8.95994 7.59972 9.47994L14.1197 15.9999L7.59972 22.5199C7.07972 23.0399 7.07972 23.8799 7.59972 24.3999C8.11972 24.9199 8.95972 24.9199 9.47972 24.3999L15.9997 17.8799L22.5197 24.3999C23.0397 24.9199 23.8797 24.9199 24.3997 24.3999C24.9197 23.8799 24.9197 23.0399 24.3997 22.5199L17.8797 15.9999L24.3997 9.47994C24.9064 8.97328 24.9064 8.11994 24.3997 7.61328Z" fill="white"/>
</svg>
